<svg viewBox="-0.5 -0.5 16 16" fill="none" xmlns="http://www.w3.org/2000/svg" id="Hourglass-Line--Streamline-Solar-Broken" height="16" width="16"><desc>Hourglass Line Streamline Icon: https://streamlinehq.com</desc><path d="m7.5 7.5 -1.8485624999999999 1.8305625C3.8248812500000002 11.139375000000001 2.91160625 12.04375 3.1672812500000003 12.8240625c0.02198125 0.0670625 0.049275 0.1323125 0.081625 0.195125C3.6252875 13.75 4.91685625 13.75 7.5 13.75c2.583125 0 3.8746875 0 4.2510625 -0.7308125 0.032375 -0.06281250000000001 0.059687500000000004 -0.1280625 0.081625 -0.195125 0.143875 -0.4390625 -0.082375 -0.9174375 -0.6331249999999999 -1.5740625M7.5 7.5l1.8485624999999999 1.8305625M7.5 7.5l1.8485624999999999 -1.8305812499999998c1.8265624999999999 -1.80879375 2.7398125 -2.7131875 2.484125 -3.4934874999999996 -0.0219375 -0.067075 -0.049249999999999995 -0.132325 -0.081625 -0.19514375C11.3746875 1.25 10.083124999999999 1.25 7.5 1.25 4.91685625 1.25 3.6252875 1.25 3.24890625 1.9807875c-0.032350000000000004 0.06281875 -0.05964375 0.12806875 -0.081625 0.19514375 -0.1438625 0.4390625 0.082375 0.9174125 0.633175 1.57406875M7.5 7.5 5.651437499999999 5.66941875" stroke="#000000" stroke-linecap="round" stroke-width="1"></path><path d="M6.25 3.4375h2.5" stroke="#000000" stroke-linecap="round" stroke-width="1"></path><path d="M6.25 11.5625h2.5" stroke="#000000" stroke-linecap="round" stroke-width="1"></path></svg>